<?xml version="1.0" ?>
<!DOCTYPE svg  PUBLIC '-//W3C//DTD SVG 1.1//EN'  'http://www.w3.org/Graphics/SVG/1.1/DTD/svg11.dtd'>
<!-- Uploaded to: SVG Repo, www.svgrepo.com, Generator: SVG Repo Mixer Tools -->
<svg fill="#000000" width="800px" height="800px" viewBox="0 0 32 32" style="fill-rule:evenodd;clip-rule:evenodd;stroke-linejoin:round;stroke-miterlimit:2;" version="1.1" xml:space="preserve" xmlns="http://www.w3.org/2000/svg" xmlns:serif="http://www.serif.com/" xmlns:xlink="http://www.w3.org/1999/xlink">
<g id="Layer1">
<path d="M30,3c0,-0.552 -0.448,-1 -1,-1l-26,0c-0.552,0 -1,0.448 -1,1l0,26c0,0.552 0.448,1 1,1l26,0c0.552,0 1,-0.448 1,-1l0,-26Zm-13,23l0,-20c-0,-0.552 -0.448,-1 -1,-1c-0.552,0 -1,0.448 -1,1l0,20c-0,0.552 0.448,1 1,1c0.552,0 1,-0.448 1,-1Zm-3,-3.846l0,-12.308c0,-0.552 -0.448,-1 -1,-1c-0.552,0 -1,0.448 -1,1l0,12.308c0,0.552 0.448,1 1,1c0.552,-0 1,-0.448 1,-1Zm6,-0l0,-12.308c0,-0.552 -0.448,-1 -1,-1c-0.552,0 -1,0.448 -1,1l0,12.308c0,0.552 0.448,1 1,1c0.552,-0 1,-0.448 1,-1Zm3,-2.308l0,-7.692c-0,-0.552 -0.448,-1 -1,-1c-0.552,-0 -1,0.448 -1,1l0,7.692c-0,0.552 0.448,1 1,1c0.552,0 1,-0.448 1,-1Zm-12,0l-0,-7.692c0,-0.552 -0.448,-1 -1,-1c-0.552,-0 -1,0.448 -1,1l0,7.692c0,0.552 0.448,1 1,1c0.552,0 1,-0.448 1,-1Zm-3,-1.538l0,-4.616c-0,-0.552 -0.448,-1 -1,-1c-0.552,0 -1,0.448 -1,1l0,4.616c-0,0.552 0.448,1 1,1c0.552,-0 1,-0.448 1,-1Zm18,-0l0,-4.616c0,-0.552 -0.448,-1 -1,-1c-0.552,0 -1,0.448 -1,1l0,4.616c0,0.552 0.448,1 1,1c0.552,-0 1,-0.448 1,-1Z"/>
</g>
</svg>